<svg enable-background="new 0 0 813.2 786.2" height="310.933574" viewBox="0 0 813.2 786.2" width="321.612101" xmlns="http://www.w3.org/2000/svg" xmlns:xlink="http://www.w3.org/1999/xlink"><clipPath id="a"><path d="m505.6 394c-11.6 0-22.7-1.4-33-4.1-17.1 23.5-39.2 43.9-64.8 57.8 22.6 12.3 48 19.6 75 19.6 103.6 0 174.2-107.8 182.5-199.4-3.2 12.1-24.5 126.1-159.7 126.1z"/></clipPath><linearGradient id="b" gradientTransform="matrix(-162.83 -37.9936 -37.9936 162.83 49938.3867 -94649.7266)" gradientUnits="userSpaceOnUse" x1="158.0788" x2="159.0788" y1="620.5049" y2="620.5049"><stop offset="0" stop-color="#219b49"/><stop offset=".1209" stop-color="#219b4a"/><stop offset="1" stop-color="#a6d93d"/></linearGradient><clipPath id="c"><path d="m531.4 107.6c-49.9 0-73.9 28.9-73.9 28.9 51.5 5.2 114.7 41.5 114.7 116.7 0 73-47.9 106.2-87 117.3-3.8 6.7-8.2 13.5-12.8 19.8 9.2 2.8 21.6 4.1 33.2 4.1 135.1 0 156.5-114.3 159.7-126.4.6-6.2.8-12.2.8-18.2.1-102.8-78.4-142.2-134.7-142.2z"/></clipPath><linearGradient id="d"><stop offset="0" stop-color="#31ad45"/><stop offset=".7473" stop-color="#a6d93d"/><stop offset="1" stop-color="#a6d93d"/></linearGradient><linearGradient id="e" gradientTransform="matrix(-.00001608 367.8888 367.8888 .00001608 -227738.6562 -57608.4336)" gradientUnits="userSpaceOnUse" x1="156.6711" x2="157.6711" xlink:href="#d" y1="620.5695" y2="620.5695"/><clipPath id="f"><path d="m310.1 394c28.7 0 53.8-8.8 73.8-22.8-6.9 2.1-15.3 3.8-23.8 3.8-38.1 0-116.6-28.2-116.6-121.8 0-75.2 63.2-111.5 114.7-116.7 0 0-24-28.9-73.9-28.9-56.3 0-134.8 39.4-134.8 142.2 0 6 .3 12 .8 18.2 3.3 12.1 24.3 126 159.8 126z"/></clipPath><linearGradient id="g" gradientTransform="matrix(-.00001606 367.505 367.505 .00001606 -227795.5312 -57548.1055)" gradientUnits="userSpaceOnUse" x1="156.6707" x2="157.6707" xlink:href="#d" y1="620.569" y2="620.569"/><clipPath id="h"><path d="m361.1 376.9c8.5 0 16.1-1.3 22.8-5.7 9.2-6.5 17.4-14 24.4-22.4-4.8-6-26.9-35.9-26.9-75.9 0-37.4 20.1-53.4 26.7-57.7-13.8-10.2-29.3-13.2-38.1-13.2-14.2 0-52.6 9.7-61.7 53.6v.1c-.3 1.8-.6 3.5-.9 5.3-.9 7.3-1.4 15.4-1.4 24.3 0 35.2 16 68.6 27.7 87.9 10.1 2.5 19.6 3.7 27.4 3.7z"/></clipPath><linearGradient id="i" gradientTransform="matrix(-.00000791 181.0287 181.0287 .00000791 -111904.0547 -28099.832)" gradientUnits="userSpaceOnUse" x1="156.3316" x2="157.3316" y1="620.129" y2="620.129"><stop offset="0" stop-color="#219b49"/><stop offset=".1868" stop-color="#219b49"/><stop offset=".7802" stop-color="#a6d93d"/><stop offset="1" stop-color="#a6d93d"/></linearGradient><clipPath id="j"><path d="m408.6 167.3c-62.6 0-92.3 46-100.3 88.3 9.1-43.9 47.3-52.5 58.2-53 13.5-.7 26.8 2.7 41.6 12.7 15 11.2 27.9 30.1 27.9 60.2 0 25.7-10 52-27.7 73.3-22.2 26.6-56.4 45.2-98.2 45.2-135.5 0-156.5-113.9-159.8-126.1 8.3 91.6 78.9 199.4 182.6 199.4 101.2 0 178.6-102.2 178.6-187.7-.1-59.3-33.8-112.3-102.9-112.3z"/></clipPath><linearGradient id="k" gradientTransform="matrix(135.2088 -510.0487 -510.0487 -135.2088 295954.9062 164611.0469)" gradientUnits="userSpaceOnUse" x1="157.1454" x2="158.1454" y1="621.3426" y2="621.3426"><stop offset="0" stop-color="#219b49"/><stop offset=".0549451" stop-color="#219b4a"/><stop offset=".522" stop-color="#a6d93d"/><stop offset="1" stop-color="#a6d93d"/></linearGradient><clipPath id="l"><path d="m410.4 132.3s-21.6-20.8-23.1-49.1c-1.1-20.6 7.2-52.1 39.9-69.5 76.3-40.8 142.6 18.6 134.9 57 0 0-56.8-25.8-109.1 5.1-38.5 22.8-42.6 56.5-42.6 56.5z"/></clipPath><linearGradient id="m" gradientTransform="matrix(156.2462 -154.2337 -154.2337 -156.2462 71790.5547 121511.6094)" gradientUnits="userSpaceOnUse" x1="156.8783" x2="157.8783" y1="621.8909" y2="621.8909"><stop offset="0" stop-color="#55b83b"/><stop offset="1" stop-color="#a6d93d"/></linearGradient><path clip-path="url(#a)" d="m505.6 394c-11.6 0-22.7-1.4-33-4.1-17.1 23.5-39.2 43.9-64.8 57.8 22.6 12.3 48 19.6 75 19.6 103.6 0 174.2-107.8 182.5-199.4-3.2 12.1-24.5 126.1-159.7 126.1" fill="url(#b)"/><path clip-path="url(#c)" d="m531.4 107.6c-49.9 0-73.9 28.9-73.9 28.9 51.5 5.2 114.7 41.5 114.7 116.7 0 73-47.9 106.2-87 117.3-3.8 6.7-8.2 13.5-12.8 19.8 9.2 2.8 21.6 4.1 33.2 4.1 135.1 0 156.5-114.3 159.7-126.4.6-6.2.8-12.2.8-18.2.1-102.8-78.4-142.2-134.7-142.2" fill="url(#e)"/><path clip-path="url(#f)" d="m310.1 394c28.7 0 53.8-8.8 73.8-22.8-6.9 2.1-15.3 3.8-23.8 3.8-38.1 0-116.6-28.2-116.6-121.8 0-75.2 63.2-111.5 114.7-116.7 0 0-24-28.9-73.9-28.9-56.3 0-134.8 39.4-134.8 142.2 0 6 .3 12 .8 18.2 3.3 12.1 24.3 126 159.8 126" fill="url(#g)"/><path clip-path="url(#h)" d="m361.1 376.9c8.5 0 16.1-1.3 22.8-5.7 9.2-6.5 17.4-14 24.4-22.4-4.8-6-26.9-35.9-26.9-75.9 0-37.4 20.1-53.4 26.7-57.7-13.8-10.2-29.3-13.2-38.1-13.2-14.2 0-52.6 9.7-61.7 53.6v.1c-.3 1.8-.6 3.5-.9 5.3-.9 7.3-1.4 15.4-1.4 24.3 0 35.2 16 68.6 27.7 87.9 10.1 2.5 19.6 3.7 27.4 3.7" fill="url(#i)"/><path clip-path="url(#j)" d="m408.6 167.3c-62.6 0-92.3 46-100.3 88.3 9.1-43.9 47.3-52.5 58.2-53 13.5-.7 26.8 2.7 41.6 12.7 15 11.2 27.9 30.1 27.9 60.2 0 25.7-10 52-27.7 73.3-22.2 26.6-56.4 45.2-98.2 45.2-135.5 0-156.5-113.9-159.8-126.1 8.3 91.6 78.9 199.4 182.6 199.4 101.2 0 178.6-102.2 178.6-187.7-.1-59.3-33.8-112.3-102.9-112.3" fill="url(#k)"/><path clip-path="url(#l)" d="m410.4 132.3s-21.6-20.8-23.1-49.1c-1.1-20.6 7.2-52.1 39.9-69.5 76.3-40.8 142.6 18.6 134.9 57 0 0-56.8-25.8-109.1 5.1-38.5 22.8-42.6 56.5-42.6 56.5" fill="url(#m)"/><path d="m326.7 655.3h11.4v-139.5h-11.4z" fill="#004e29"/><path d="m240.9 605.9c0 24 12.7 41.9 30.5 41.9s30.3-17.9 30.3-42.1c0-24.4-12.4-42.3-30.1-42.3-18.6 0-30.7 17.5-30.7 42.5zm73.1-.2c0 31.1-17 51.8-42.5 51.8-25.9 0-43.1-20.5-43.1-51.8 0-31.8 17-52 43.3-52 25.9 0 42.3 20.2 42.3 52" fill="#004e29"/><path d="m482.4 605.9c0 24 12.7 41.9 30.5 41.9s30.3-17.9 30.3-42.1c0-24.4-12.4-42.3-30.1-42.3-18.6 0-30.7 17.5-30.7 42.5zm73.2-.2c0 31.1-17 51.8-42.5 51.8-25.9 0-43.1-20.5-43.1-51.8 0-31.8 17-52 43.3-52 25.8 0 42.3 20.2 42.3 52" fill="#004e29"/><path d="m146.8 605.9c0 24 12.7 41.9 30.5 41.9s30.3-17.9 30.3-42.1c0-24.4-12.4-42.3-30.1-42.3-18.6 0-30.7 17.5-30.7 42.5zm73.1-.2c0 31.1-17 51.8-42.5 51.8-25.9 0-43.1-20.5-43.1-51.8 0-31.8 17-52 43.3-52 25.9 0 42.3 20.2 42.3 52" fill="#004e29"/><path d="m681.1 556.1v4.7c-.2 4.3 0 8.8-.6 13.1 6.4-12.3 17.9-19.3 31.3-19.3 21.9 0 29.8 16.2 31 36.9.4 4.7.6 12.7.6 17.4v46.3h-11.4v-46.2c0-5.7-.2-15.4-.6-20.1-1.4-15.8-9.1-24.4-21.7-24.4-10.3 0-19.8 6.8-24.9 17.4-1.9 3.9-2.7 7.8-3.3 16.2-.2 3.1-.4 9.3-.4 10.9v46.3h-11.3v-139.5h11.3z" fill="#004e29"/><path d="m805 567.7c-7.7-2.6-11.3-3.4-18.9-3.7-11.3-.5-19.5 6.8-19.5 15.2 0 20.5 46.5 18.2 46.5 49.8 0 16.6-13.8 28.1-34 28.1-8.5 0-15.7-1.4-24.2-4.9l.8-11.2c8.5 4.7 15.1 6.5 22.7 6.5 12.9 0 22.3-8.5 22.3-18.4 0-23.8-45.4-19.7-45.4-49.6 0-15.4 12.1-25.5 31-25.2 7.3.1 10.7.3 19.6 3.4z" fill="#004e29"/><path d="m414.4 555.7s13.8 56.3 16.7 69.5c1.4 6.4 3.5 15.8 3.5 15.8s2.2-9.4 3.9-15.8c3.6-13.3 19.4-69.5 19.4-69.5h12.1l-28.8 99.5h-13.4s-15.2-65.7-16.9-73.8c-.9-4.1-2.1-10.2-2.1-10.2s-1.2 6.2-2.1 10.2c-1.8 8.1-16.9 73.8-16.9 73.8h-13.4l-28.8-99.5h12.2s15.8 56.2 19.4 69.5c1.7 6.4 3.9 15.8 3.9 15.8s2.1-9.4 3.5-15.8c2.9-13.2 16.7-69.5 16.7-69.5z" fill="#004e29"/><path d="m73 540.7s18.6 67.8 21.7 79.5c1.8 6.5 4.5 18.1 4.5 18.1s2.4-11.5 4.1-18.1c2.9-11.6 20.3-79.4 20.3-79.4h11.8l-29.5 114.6h-12.9s-21.7-82.9-22.7-87.1-2.6-12.4-2.6-12.4-1.6 8.2-2.6 12.4-22.7 87.1-22.7 87.1h-12.9l-29.5-114.7h11.8s17.4 67.8 20.3 79.4c1.6 6.6 4.1 18.1 4.1 18.1s2.8-11.5 4.5-18.1c3.1-11.7 21.7-79.5 21.7-79.5h10.6" fill="#004e29"/><path d="m567.8 655.3v-99.4h9.7v22.7s5.4-21.1 35.4-22.7c4.2-.2 9.6-.1 9.6-.1v-25l11.3-4.4v29.4h23.2v10.2h-23.2v60.4c0 14.3 4.5 19.2 14.2 19.2 5.4 0 9.8-2 9.8-2l1.2 9.8s-5.6 1.8-11.6 1.8c-3.1 0-12.1.4-18.3-5.8-4.1-4.2-6.6-11-6.6-23.6 0-11.5 0-60.2 0-60.2-3.9 0-12.4-.5-19.2 1.3-9.2 2.4-24.2 11.9-24.2 35.7v52.7z" fill="#004e29"/><g fill="#175734"><path d="m721.3 753.8c-2.1.2-4.2-.2-6.1-1-2.3-1-3.7-2.6-4.1-5.1-.3-1.7-.1-3.4-2.6-4-1.5-.4-1-2.4-1.1-3.7s.9-1.8 1.9-1.8c1.8-.1 2.4-1.3 3.1-2.7 2.4-5 5.1-9.9 9.2-13.9 1.6-1.5 3.4-2.8 5.4-3.6 3.4-1.3 6.2 0 8.6 2.4 2.2 2.2 1.9 4.7.9 7.2-2.7 6.4-7.7 10.5-13.5 13.8-.3.1-.6.2-.8.3-1.3 1-4.4.7-3.4 3.5.9 2.3 3.3 1.2 5 1 4.9-.6 9.2-3.1 13.5-5.3 1.7-.9 3.5-1.9 5.1.2 1.3 1.8 1.5 3.6-.4 4.9-6.3 4.3-13 7.5-20.7 7.8zm-1.8-17.7c4.4-2.3 7.8-5.5 10.1-10 .4-.7.8-1.6 0-2.1-.9-.6-1.6.1-2.2.9-2.9 3.5-5.7 7.1-7.9 11.2z"/><path d="m440.9 730.3c-4.4.5-8.7 1-12.9 1.5-1.7.2-2.6 1-3.1 2.7-4.4 14.4-8.8 28.9-13.2 43.3-.3.9-.5 1.7-.8 2.5-.8 2.1-1.7 3.9-4.5 2.9-3.1-1.1-4-2.9-3.2-5.9 3.4-13.1 7.9-25.8 11.9-38.7 1.5-4.8 1.5-4.8-3.6-4.8-3.3.1-6.8.5-9.5-2.4-1.1-1.2-1.8-2.5-1.3-4 .4-1.4 1.9-1.2 3-1.3 4.1-.6 8.3-.5 12.5-.9 2.1-.2 3-.9 3.5-2.7 2.6-7.9 5.4-15.8 9.4-23.1 2.5-4.6 5.7-8.6 9-12.6 2.2-2.6 5-3.1 8.1-2.3 3.3.9 5.7 2.9 6.3 6.4.5 2.6.2 5.1-.8 7.6-.5 1.3-1.3 2.4-2.8 2.2s-2-1.4-2-2.9c0-1.3-.1-2.6-.2-3.9-.1-1 0-2.2-1.1-2.5-1-.3-1.4.9-2 1.5-6.9 7.2-10.7 16.1-13.6 25.5-1.5 5.1-1.5 5 3.9 4.6 4.8-.4 9.5-2.2 14.5-.7.5.1 1.2-.6 1.8-.9 3.7-2.2 7.1-3.6 11.4 1.1.7.8 1.4 1.1 2.6 1 3-.5 3.7.2 3.3 3.2-.7 5.7-3.4 10.6-6.8 15-2.5 3.3-5.5 6.3-9 8.6-3.2 2.1-6.9 4.1-10.5 1.8-4.3-2.8-4.8-7.5-4.3-12.2.3-2.6 1.5-4.9 2.9-7.1.4-.6 1.2-1.3 1.1-2.5zm17.1.3c-.3-.9.4-3.2-1.9-2-6 3.1-10.4 7.8-12.7 14.3-.2.5-.5 1.2 0 1.7s1.1 0 1.6-.2c5.2-2.1 8.7-6.1 12.1-10.3.8-1 .8-2.2.9-3.5z"/><path d="m267.8 729.6c4.5-3.4 8.8-6.8 13.9-9.2 1.4-.6 2.8-.9 4.3-.8 1.8.1 2.7 1.1 3.2 2.6s-.4 2.5-1.5 3.2c-1.9 1.1-3.9 2-5.8 3.1-9.5 5.3-17.8 11.6-21.7 22.4-.7 2.1-1.9 3.8-4.4 3.6-2-.1-3.4-.9-4.1-2.9-.5-1.6.2-3.1.7-4.6 1.8-4.9 3.7-9.8 5.7-14.7.6-1.5.5-2.1-1.3-2.2-4.9-.2-9.7-.5-14.6-1-2.4-.2-3.4.6-4.1 3-3.3 11.4-5.1 23.1-7.6 34.6-1.2 5.5-2.7 11-4.9 16.2-.6 1.4-1.1 3-2.9 3.1-1.9 0-3-1.1-3.7-2.9-.6-1.5-1.8-2.8-1.7-4.7.1-1.6.3-2.8 1.8-4 2.9-2.3 3.2-6.1 4-9.4 2.5-10.6 4.6-21.4 6.9-32 .4-2 .8-3.2-2.1-2.5-2.2.5-4.3 1.5-6.5 2.1-2 .6-3.5 0-4-1.9-.4-1.9-2.1-4.2 1.5-5.4 3.7-1.2 7.4-2.2 11.2-2.8 2.1-.4 3-1.4 3.8-3.2 3-7.9 6.4-15.6 11.5-22.4 3.3-4.4 7-8.2 12.2-10.1 2.3-.9 9.1 1.9 10.1 4.1.3.6.4 1.4.2 2-1.2 3.6-3.6 6.3-6.8 8.4-1 .6-1.6.1-1.3-1 .2-1.1.6-2.1.9-3.1.2-.9 1.3-2 .2-2.7-.9-.6-1.8.5-2.6 1-3.3 2.3-5.9 5.3-8.2 8.6-3.2 4.7-5.7 9.8-8 15-1 2.3-.5 2.7 1.9 3 5.2.5 10.6.5 15.6 2.5 1.2.5 1.4-.4 1.6-1.1.7-2.1 1.4-4.1 2-6.2.5-1.9 1.4-3.1 3.5-2.5s4 1.6 3.8 4.2c-.2 2.8-1.4 5.4-2.3 8 0 .9-.8 1.6-.4 2.6z"/><path d="m605.7 746.5c4.3-.2 8.5-2.4 12.8-4.4 3-1.5 5.1-3.2 6.4-6.6 2.3-5.8 6.5-10.4 11.8-13.9 3.5-2.3 7-3.5 11.2.9.9 1 1.7 1.4 3.1 1 2.3-.8 3.1.4 3 2.6-.3 5.8-3.1 10.7-6.3 15.2-2.8 3.9-6.2 7.2-10.4 9.8-6 3.7-9.3 3-13-2.9-.9-1.4-1.5-.3-2.1 0-4.3 2.1-8.5 4.4-13.2 5.2-3.3.6-6.5.8-9.7-.2-3.3-1-4.9-3.2-5.3-6.5-.1-1.3-.1-2.3-2-2.7-1.8-.3-1.6-2.3-1.6-3.8 0-1.4.9-2 2.1-2 1.7-.1 2.3-1.1 3-2.5 2.5-5.3 5.3-10.4 9.7-14.5 3.9-3.6 7.9-4.5 11.3-2.5 3.8 2.3 4.8 5.5 2.9 9.7-2.8 6-7.7 10-13.3 13.2-.6.3-1.3.6-1.9.9-1.2.6-2.9.7-2.5 2.7.2 1.2.7 1.4 4 1.3zm-2.6-10.5c4.2-2.3 7.4-5.6 9.7-9.8.4-.7.7-1.6 0-2.2-.8-.6-1.5 0-2 .6-2.8 3.6-5.9 6.9-7.9 11.1-.3.1-.5.2-.3.5-.1 0 .3-.1.5-.2zm41.2-5.4c-.4-.7.7-3.2-1.7-2-6.1 3-10.5 7.7-12.8 14.2-.2.6-.7 1.4.1 1.9.5.4 1.1-.1 1.7-.3 5.1-2 8.5-6.1 11.9-10.1.7-1 .7-2.3.8-3.7z"/><path d="m355.7 730.3c1.4.2 1.8-.9 2.5-1.6 3.3-3.7 6.9-7.2 11.1-9.9 2.3-1.5 4.7-2.6 7.4-.4 3 2.4 3.5 3.4 2.4 7.4-1.4 4.9-3 9.9-4.5 14.8-.3 1-.6 1.9-.3 3.5 2.4-2.5 4.6-2.9 7-.4 1.4 1.4 1.5 2.7.5 4.3-2 3.3-6.8 5.4-10 4.4s-5.8-5-5.6-9c.2-3.8 1.3-7.4 2.3-11 .3-.9 1-1.8.6-3-3.6 2-6.1 5.2-8.8 8.1-4.3 4.5-7.3 9.9-11.3 14.5-1.1 1.3-1.9 3.6-4.5 2.3-3-1.5-4.6-4.5-3.7-7.3 1.5-5.2 3.6-10.3 5.6-15.4 5.3-13.7 10.5-27.4 15.6-41.2.8-2.1 1.8-2.2 3.3-1.2 4.8 3.1 5.3 3 3.2 8.4-4.3 10.8-8.5 21.7-12.8 32.7z"/><path d="m526.6 735.3c-3.4 3.7-6.3 6.9-9.2 9.9-3.1 3.3-6.5 6.4-10.6 8.5-1.3.7-2.2.6-3.2-.3-3-2.7-4.3-5.8-3.4-9.8 1.1-4.7 3.1-9 6.6-12.4 4.5-4.4 9.2-8.5 14.9-11.2.8-.4 1.7-.8 2.5-.8 3.1.3 4.4-1.4 5.3-4.1 2.4-6.6 4.8-13.2 7.4-19.8.4-1 .3-3.1 2.2-2.4s4.9.2 5.1 3.6c.1 1.7-.3 3.3-.9 4.9-3.2 9.1-6.3 18.2-8.4 27.6-1 4.8-1.3 9.6-1.6 14.5-.1 1.2 0 2.4.6 3.5.7 1.3.6 2.7.2 4.1-.6 2.2-2.2 3-4.3 2.8s-3.6-1.1-3.7-3.5c0-4.8 0-9.5.5-15.1zm-17.3 7.3c.2.2.5.4.7.6 5.3-5.6 10.7-11.2 16-16.8-4.9 1.1-14.6 11.2-16.7 16.2z"/><path d="m668.1 751c-7.5-.1-7.4 0-9 5.6-2.3 8.1-4.7 16.2-7 24.3-.6 2-.8 4.1-3.7 3.6-2.7-.5-4.9-3.2-4.4-5.7.8-3.8 1.8-7.5 2.8-11.3 2.1-8.2 4.1-16.4 6.4-24.5 2.2-7.8 6.7-14.6 9.8-22 .6-1.4 1.5-2 2.7-.7 1.1 1.2 2.1 1 3.4.4 9.3-4.2 16 2.6 18.2 9.9 1.1 3.7-.8 7.3-3.2 10.2-4.5 5.6-10.1 9.7-16 10.2zm12.4-21.6c.4-2.4-.8-2.9-3-2.5-7.1 1.3-13.3 8.6-13.4 16 0 1.5.6 1.1 1.4.9 6.2-1.9 10.7-5.8 14.2-11.1.7-1 .9-2.1.8-3.3z"/><path d="m573.4 717.8c4.8.9 10.5 2.2 14.7 6.7 3.7 3.9 3.9 8.4.5 12.6-4.4 5.5-10 9.5-16.5 11.8-3.9 1.4-6.1 3.5-7.2 7.7-1.8 6.6-3.5 13.3-4.9 19.9-.3 1.5-.7 3-2.4 3.4-1.6.3-2.5-.9-3.5-1.9-1.9-2-2.4-4.1-1.8-6.8 1.5-6 2.7-12 4.1-18 .5-1.9.4-3.5-1.2-4.9-1.5-1.4-1.2-2.5.8-2.8 2.2-.4 2.7-1.8 3.2-3.7 1.8-6.4 2.6-13.1 5.4-19.2 1.7-3.3 4.3-4.9 8.8-4.8zm-3.5 22.7c5.3-1.1 8.9-4.5 11.9-8.7 2.2-3.1 1.9-4.1-1.6-5.4-1.7-.6-3.5-1.4-5.2-.9-1.5.4-.9 2.5-1.5 3.8-1.5 3.6-3.1 7.3-3.6 11.2.1.1.1.1.1.2 0-.1-.1-.1-.1-.2z"/><path d="m296.4 753.8c-2 .1-4-.2-5.9-.9-2.5-1-4.1-2.7-4.5-5.4-.2-1.6-.1-3.2-2.5-3.7-1.5-.3-1.2-2.3-1.2-3.7s1-1.9 2.1-1.9c1.6-.1 2.1-1 2.7-2.3 2.5-5.2 5.2-10.3 9.4-14.3 1.5-1.4 3.1-2.5 4.9-3.3 3.3-1.3 6.1-.6 8.9 2.1 2.4 2.4 2 5.1.9 7.7-2.9 6.3-8 10.5-14 13.7-1.5.8-4.7.7-3.6 3.6.9 2.3 3.5 1.1 5.3.9 4.8-.6 9-3.1 13.2-5.3 1.7-.9 3.5-1.9 5 .2 1.3 1.7 1.5 3.6-.4 4.9-5.9 4.2-12.6 7.4-20.3 7.7zm-1.7-17.6c4.4-2.4 8-5.7 10.3-10.2.3-.7.6-1.4-.1-1.9-.8-.6-1.5-.1-2 .6-3.1 3.5-6.1 7.2-8.2 11.5z"/><path d="m468.4 741.1c1.1-6.6 4.9-12.7 9.7-18.2 1-1.1 2.1-2.2 3.4-2.9 2.8-1.6 5.8-3.6 9.2-1.6 4.5 2.6 8.2 6.2 7.4 11.8-1.3 8.3-4.6 15.9-11.4 21.2-3.4 2.7-7.4 3.6-11.4 1.4-4.3-2.3-6.8-5.8-6.9-11.7zm7.6 3.3c-.4 2.6.9 2.8 2.8 2 .7-.3 1.5-.7 2.1-1.1 5.5-4.4 8.2-10.5 10.2-17 .3-.9.1-1.8-.7-2.4s-1.5-.1-2.2.3c-6.7 4.4-10.3 10.7-12.2 18.2z"/><path d="m327.4 751.3c-.5-3.9-1.5-7.3-2.9-10.6-2.1-5-2.5-10.2-1.9-15.5.2-2.2 1.5-4.1 3-5.7 1.8-2 4-3.6 6-5.4 2.6-2.3 5.1-1.4 7.6 0 2.3 1.3 2 5.2-.4 6.7-3.1 2-6.3 3.8-8.1 7.3-.8 1.7-1.1 3.2-.6 5.1 1.4 4.7 3 9.5 3.9 14.4 1.2 6.5.7 12.8-4.3 18.1-5.7 6.2-13.8 4.8-16.6-3.1-.6-1.8-.5-3.7.9-5.3 1.4-1.7 3.3-1 4.9-1.1s1.3 1.4 1 2.5c-.2.9-.8 1.9-.1 2.5.9.7 1.9-.2 2.7-.7 3.5-2.3 4.5-5.7 4.9-9.2z"/><path d="m698.3 754.3c-4.6.1-7.4-2.6-7.5-7.4-.1-3.2.6-6.3 1.6-9.4 3.6-11.1 7.3-22.2 11-33.4.7-2.3 1.3-4.6 2-6.9.5-1.7.3-3.9 3.1-3.4 2.3.5 4.4 1.4 4.5 4.3.1 3-.8 5.7-1.7 8.4-4 11.6-8.2 23.2-11.6 35-.3 1-.5 1.9-.7 2.9-.4 1.4.1 2.1 1.6 1.8 1.7-.3 3.9-1.4 4.5 1.2.5 2.4-.3 4.7-2.9 6-1.4.8-2.6 1-3.9.9z"/><path d="m194.4 741.5c-.8-1.3-2-2-3.5-1.3-1.5.6-2.9 1.3-4.3 2.1-3.9 2.1-7.8 3.9-12.3 4.1-1.4.1-3.5.9-3.9-1.5-.5-2.2 1.6-2.2 2.8-2.8 6.4-3.1 11.8-7.4 14.9-14 2-4.1.7-7.7-3.3-9.8-2.7-1.5-5.4-1-7.9.5-4.1 2.4-7 5.9-9.1 10-1.9 3.7-4.5 6.4-8 8.5-3.4 2-6.3 4.6-10.2 6.5.5-3.3 1.2-6.1 2.1-8.8 1.2-3.6 2.4-7.2 2.9-10.9.3-2 .1-4-2-4.8-2.9-1.1-5.9-1.6-8.8.2-3 1.9-5.4 4.4-7.4 7.3-.6.8-.9 2-2.3 1.5.4-.9.7-1.8 1.1-2.6 3.5-8.1 6.5-16.4 10-24.5 2-4.8 4.5-7.4 10-7.5 5.1-.2 5.9-2.2 6-7.7 0-2.6-1.1-5-2.8-7.1-3.2-4-7.1-4-10.2 0-1.2 1.7-2.5 3.4-3.4 5.2-1.1 2.2-2.6 3.2-5.1 3.1-5.5-.1-11-.1-16.4 0-1.7 0-3.1-.2-4.4-1.7-1.9-2-5.6-2.2-6.2-.4-.8 2.6-2.7 2.5-4.7 2.5-10.9.3-21.6 1.7-32.2 3.8-8.9 1.8-17.1 5.3-22.7 13-3.4 4.6-1.9 12.3 3 15.2 1.3.8 2 0 2.9-.6.8-.6.9-1.2.4-2.3-1.9-3.7-1.5-6 1.5-8.7 5.2-4.8 11.3-7.8 18.1-9.3 8.9-2 18-2.9 27.2-3.4 2.4-.1 2.7.6 2 2.6-2.5 6.9-5.2 13.8-7.3 20.8-3.1 10.3-6.9 20.3-10.7 30.3-1.6 4.3-1.2 5.7 2.6 8.3 2.2 1.6 3.7 1.2 5.1-1.2s1.9-5 2.6-7.6c1.6-6.2 4.4-11.9 6.1-18 3.2-11.3 7-22.4 10.4-33.5.4-1.4.8-2.7 2.6-2.7h19.8c-1.1 2.2-2.1 4.1-3 6-5.8 13.1-10.3 26.6-15.1 40.1-.7 1.9-1.2 3.8-1.7 5.7-.6 2.5 1.2 5.5 3.8 6.3 2.1.7 3.9-.2 4.7-2 2.3-4.8 6-8.6 8.8-13.1 1.9-3 4-6 7.5-8.7-1.7 5.4-3.2 10.1-4.1 15-.7 3.5.3 5.9 3.2 8 2.7 1.9 5.1.9 7.6-.2 4-1.8 7.6-4.3 11.2-6.8 1.5 6.3 2 7.4 6.3 8.3 9.9 2.1 18-2.3 25.8-7.6 1.1-.6.8-2.3 0-3.8zm-15.1-16.8c.5-.6 1.1-1.3 2-.8s.5 1.4.2 2.1c-2.2 4.3-5.5 7.5-9.5 9.9-.3.2-.5 0-.6-.2 2-4.1 5.1-7.4 7.9-11zm-8 11.1c0 .1.1.2.1.3-.1 0-.2 0-.4 0zm-19-50.6c.6-.9 1.4-1 1.6-.8s.4 1.1-.4 1.8c-.7.7-1.8.6-1.8.6s.1-.7.6-1.6z"/></g></svg>